<?xml version="1.0" standalone="no"?>
<!DOCTYPE svg PUBLIC "-//W3C//DTD SVG 20010904//EN"
 "http://www.w3.org/TR/2001/REC-SVG-20010904/DTD/svg10.dtd">
<svg version="1.0" xmlns="http://www.w3.org/2000/svg"
 width="512.000000pt" height="512.000000pt" viewBox="0 0 512.000000 512.000000"
 preserveAspectRatio="xMidYMid meet">
<metadata>
Created by potrace 1.11, written by Peter Selinger 2001-2013
</metadata>
<g transform="translate(0.000000,512.000000) scale(0.100000,-0.100000)"
fill="#000000" stroke="none">
<path d="M3887 5088 c-43 -4 -121 -19 -175 -33 -93 -25 -292 -113 -340 -152
-127 -102 -165 -136 -217 -195 l-59 -68 -1051 -1 c-577 0 -1059 -2 -1070 -4
-11 -2 -37 -6 -58 -10 -49 -7 -155 -55 -204 -91 -87 -65 -177 -186 -204 -276
-6 -18 -13 -42 -17 -53 -4 -11 -8 -747 -9 -1635 -1 -1357 0 -1623 12 -1667 45
-167 157 -302 308 -371 117 -55 35 -52 1743 -52 1076 0 1600 4 1639 11 66 12
152 48 210 87 51 34 137 122 155 159 8 15 19 35 26 43 6 8 22 44 35 80 l24 65
5 970 5 970 67 100 c215 323 337 575 384 792 19 90 26 291 13 378 -48 309
-218 582 -473 760 -214 150 -482 219 -749 193z"/>
</g>
</svg>
